<svg version="1.2" xmlns="http://www.w3.org/2000/svg" viewBox="0 0 2122 2122" width="2122" height="2122">
	<title>vecteezy_paper-document-with-face-sad-line-and-fill-style-icon_2575413</title>
	<style>
		.s0 { fill: #ffffff } 
		.s1 { fill: #000000 } 
		.s2 { fill: #b5e4f9 } 
	</style>
	<g id="iconos">
		<g id="&lt;Group&gt;">
			<path id="&lt;Compound Path&gt;" class="s0" d="m525.6 1486.4h351.7c19.3 0 34.9 15.7 34.9 35v343.3h683.5v-1608.1h-1069.7zm657.1-753.3c-7.2-6.5-7.7-17.5-1.2-24.7 6.5-7.1 17.6-7.6 24.7-1.1l93.6 85.4 93.6-85.4c7.2-6.5 18.2-6 24.7 1.1 6.5 7.2 6 18.2-1.1 24.7l-91.3 83.2 91.3 83.3c7.1 6.5 7.6 17.5 1.1 24.6-3.4 3.8-8.2 5.7-12.9 5.7-4.2 0-8.4-1.5-11.8-4.5l-93.6-85.4-93.6 85.4c-3.3 3-7.6 4.5-11.8 4.5-4.7 0-9.4-1.9-12.9-5.7-6.5-7.1-6-18.1 1.2-24.6l91.2-83.3zm124.4 396.4c4 8.8 0.1 19.2-8.7 23.1-8.8 4-19.1 0.1-23.1-8.6-29.9-66-116.1-110.2-214.6-110.2-98.5 0-184.7 44.2-214.6 110.2-2.9 6.4-9.3 10.2-15.9 10.2-2.4 0-4.9-0.5-7.2-1.5-8.8-4-12.7-14.4-8.7-23.1 35.4-78.2 134.4-130.8 246.4-130.8 111.9 0 211 52.6 246.4 130.7zm-618.7-396.4c-7.2-6.5-7.7-17.5-1.2-24.6 6.5-7.2 17.6-7.7 24.7-1.2l93.6 85.4 93.6-85.4c7.1-6.5 18.2-6 24.7 1.2 6.5 7.1 6 18.1-1.1 24.6l-91.3 83.3 91.3 83.2c7.1 6.5 7.6 17.5 1.1 24.6-3.5 3.8-8.2 5.7-12.9 5.7-4.2 0-8.4-1.5-11.8-4.5l-93.6-85.4-93.6 85.4c-3.4 3-7.6 4.5-11.8 4.5-4.7 0-9.4-1.9-12.9-5.7-6.5-7.1-6-18.1 1.2-24.6l91.2-83.2z"/>
			<path id="&lt;Compound Path&gt;" class="s1" d="m1595.7 221.7h-1069.7c-19.2 0-34.9 15.6-34.9 34.9l-0.4 1264.7c0 0.5 0.1 1 0.1 1.4q0 0.6 0 1.2 0.2 2.3 0.6 4.5 0.1 0.2 0.1 0.4 0.5 2 1.2 4 0.2 0.5 0.4 1.1c0.5 1.4 1.1 2.8 1.8 4.1q0.1 0.1 0.1 0.2 1.1 1.9 2.4 3.7 0.4 0.5 0.8 0.9c0.9 1.3 1.9 2.4 3 3.5l351.7 343.4q1.2 1.2 2.6 2.3c0.4 0.3 0.9 0.6 1.3 0.9 0.5 0.4 0.9 0.7 1.4 1.1q0.9 0.5 1.8 1c0.4 0.2 0.7 0.4 1.1 0.7 0.7 0.3 1.3 0.6 2 0.9 0.4 0.1 0.7 0.3 1.1 0.5q1 0.4 2.1 0.7 0.5 0.2 1 0.4 1.3 0.3 2.6 0.6 0.3 0.1 0.7 0.2 3.3 0.6 6.7 0.6 0.1 0 0.1 0h718.3c19.3 0 34.9-15.6 34.9-34.9v-1608.1c0-19.3-15.6-34.9-34.9-34.9zm-718.4 1643l-351.7-343.3h351.7zm718.4 0h-683.5v-343.4c0-19.3-15.6-34.9-34.9-34.9h-351.7l0.4-1229.8h1069.7z"/>
			<path id="&lt;Path&gt;" class="s2" d="m877.3 1864.7v-343.3h-351.7z"/>
			<path id="&lt;Path&gt;" class="s1" d="m687.2 924.2c3.4 3.8 8.1 5.7 12.9 5.7 4.2 0 8.4-1.5 11.7-4.5l93.7-85.4 93.6 85.4c3.3 3 7.5 4.5 11.7 4.5 4.8 0 9.5-1.9 12.9-5.7 6.5-7.1 6-18.1-1.1-24.6l-91.2-83.3 91.2-83.2c7.1-6.5 7.6-17.5 1.1-24.7-6.4-7.1-17.5-7.6-24.6-1.1l-93.6 85.4-93.7-85.4c-7.1-6.5-18.1-6-24.6 1.1-6.5 7.2-6 18.2 1.1 24.7l91.3 83.2-91.3 83.3c-7.1 6.5-7.6 17.5-1.1 24.6z"/>
			<path id="&lt;Path&gt;" class="s1" d="m1181.5 924.2c3.5 3.8 8.2 5.7 12.9 5.7 4.2 0 8.5-1.5 11.8-4.5l93.6-85.4 93.6 85.4c3.4 3 7.6 4.5 11.8 4.5 4.7 0 9.5-1.9 12.9-5.7 6.5-7.1 6-18.1-1.1-24.6l-91.3-83.3 91.3-83.2c7.1-6.5 7.6-17.5 1.1-24.7-6.5-7.1-17.5-7.6-24.7-1.1l-93.6 85.4-93.6-85.4c-7.1-6.5-18.2-6-24.7 1.1-6.5 7.2-6 18.2 1.2 24.7l91.2 83.2-91.2 83.3c-7.2 6.5-7.7 17.5-1.2 24.6z"/>
			<path id="&lt;Path&gt;" class="s1" d="m814.2 1129.5c-3.9 8.8-0.1 19.2 8.7 23.1 2.4 1.1 4.8 1.6 7.2 1.6 6.7 0 13-3.8 15.9-10.2 29.9-66 116.2-110.3 214.7-110.3 98.4 0 184.7 44.3 214.6 110.2 4 8.8 14.3 12.7 23.1 8.7 8.8-4 12.7-14.3 8.7-23.1-35.5-78.2-134.5-130.7-246.4-130.7-112 0-211 52.5-246.5 130.7z"/>
		</g>
	</g>
</svg>